<svg xmlns="http://www.w3.org/2000/svg" xml:space="preserve" width="512" height="512" class="hovered-paths" style="enable-background:new 0 0 512 512" viewBox="0 0 152 152"><g data-name="Layer 2"><g data-name="50.nigeria"><path fill="#f0f9ff" d="M124.81 149.4a459 459 0 0 1-97.62 0A27.69 27.69 0 0 1 2.6 124.81a459 459 0 0 1 0-97.62A27.69 27.69 0 0 1 27.19 2.6a459 459 0 0 1 97.62 0 27.69 27.69 0 0 1 24.59 24.59 459 459 0 0 1 0 97.62 27.69 27.69 0 0 1-24.59 24.59z" data-original="#f0f9ff"/><path fill="#00c853" d="M34.7 1.87v148.26c-2.5-.22-5-.47-7.51-.74A27.66 27.66 0 0 1 2.6 124.82a459.21 459.21 0 0 1 0-97.64A27.68 27.68 0 0 1 27.19 2.61c2.5-.27 5.01-.51 7.51-.74zm114.7 122.95a27.66 27.66 0 0 1-24.59 24.57c-2.5.27-5 .52-7.51.74V1.87c2.5.23 5 .47 7.51.74a27.68 27.68 0 0 1 24.59 24.57 459.21 459.21 0 0 1 0 97.64z" class="hovered-path" data-original="#00c853"/></g></g></svg>