<svg xmlns="http://www.w3.org/2000/svg" xml:space="preserve" width="512" height="512" style="enable-background:new 0 0 512 512" viewBox="0 0 152 152"><g data-name="Layer 2"><g data-name="06.united states of america"><path fill="#f0f9ff" d="M124.81 149.4a459 459 0 0 1-97.62 0A27.69 27.69 0 0 1 2.6 124.81a459 459 0 0 1 0-97.62A27.69 27.69 0 0 1 27.19 2.6a459 459 0 0 1 97.62 0 27.69 27.69 0 0 1 24.59 24.59 459 459 0 0 1 0 97.62 27.69 27.69 0 0 1-24.59 24.59z" data-original="#f0f9ff"/><path fill="#f40055" d="M152 82.47H71.74V69.54H152q.06 6.46 0 12.93zm-1.69 32.97c-.27 3.12-.58 6.25-.91 9.37a27.72 27.72 0 0 1-.62 3.57H3.22a27.72 27.72 0 0 1-.62-3.57c-.33-3.12-.64-6.25-.91-9.37zm-6.23-101.83H71.74V0H76q6.1 0 12.21.16t12.21.49q9.15.48 18.29 1.33c2 .19 4.07.39 6.1.61.56.06 1.11.14 1.66.24.39.06.77.13 1.15.21l.24.05c.43.1.86.2 1.28.32s.93.26 1.38.41a27 27 0 0 1 2.68 1c.43.19.86.39 1.27.61l1 .56c.49.28 1 .58 1.45.88s.76.51 1.13.78l.9.68.49.4c.2.16.39.32.57.49s.54.47.8.72l.59.57a25 25 0 0 1 1.83 2c.33.41.59.75.85 1.1zm7.63 45.91h-80V46.58h79.32q.45 6.42.68 12.94zm0 32.97q-.24 6.47-.65 12.93H.94Q.52 99 .29 92.49zm-7.63 45.91a27.64 27.64 0 0 1-19.27 11 459 459 0 0 1-97.62 0 27.64 27.64 0 0 1-19.27-11zm6.23-101.84H71.74V23.63h77a27.87 27.87 0 0 1 .62 3.56c.37 3.12.64 6.24.95 9.37z" data-original="#f40055"/><path fill="#406bd4" d="M76 0v82.47H.05v-3C0 76.75 0 74 0 71.23c0-1.21 0-2.41.05-3.62s.05-2.54.08-3.81v-.29c0-1.36.08-2.72.13-4.09A5 5 0 0 0 3.47 61a5 5 0 0 0 10 0 5 5 0 0 0 0-10 5 5 0 0 0-10 0 4.93 4.93 0 0 0-2.86 1.34v-.75c.12-1.53.21-3.07.31-4.59s.2-3 .31-4.54c0-.35.05-.69.08-1 .12-1.69.26-3.38.4-5.07a.2.2 0 0 0 0-.07c.16-1.79.32-3.58.5-5.36.12-1.24.25-2.48.38-3.72a29.815 29.815 0 0 1 .62-3.57c.1-.38.2-.77.31-1.15s.18-.6.28-.9c.16-.51.34-1 .54-1.51s.3-.75.46-1.11.33-.73.51-1.09c.26-.52.53-1 .82-1.53.14-.25.29-.5.44-.74.3-.49.62-1 1-1.44s.64-.88 1-1.31c.56-.7 1.15-1.36 1.77-2l.55-.55c.63-.61 1.29-1.2 2-1.75l.6-.59c.22-.18.46-.34.69-.51A26.91 26.91 0 0 1 16.58 6l.54-.3c.38-.2.76-.4 1.16-.59l.85-.38c.29-.13.58-.25.88-.36s.73-.28 1.1-.41l.76-.25h.14l.65-.19 1-.26c.34-.14.73-.26 1.11-.26h.09c.37-.07.74-.14 1.12-.19s.8-.12 1.21-.16q5-.52 10-1l2.21-.18c1.49-.12 3-.24 4.46-.34h.06C45.38 1 46.84.93 48.3.84h.23L51 .69h.54c3-.16 6-.29 9-.39 1.91-.09 3.77-.14 5.63-.18S69.68.05 71.44 0h.3z" data-original="#406bd4"/><path fill="#fff" d="M63 51.05a5 5 0 0 1 0 10 5 5 0 0 1-10 0 5 5 0 0 1 0-10 5 5 0 0 1 10 0zM23.78 56a5 5 0 0 1 4.49-5 5 5 0 0 1 10 0 5 5 0 0 1 0 10 5 5 0 0 1-10 0 5 5 0 0 1-4.49-5zm18.95-29.78a5 5 0 0 1-4.5 5 5 5 0 0 1-10 0 5 5 0 0 1 0-10 5 5 0 0 1 10 0 5 5 0 0 1 4.5 5zm-24.8 0a5 5 0 0 1-4.49 5 5 5 0 0 1-10 0 4.76 4.76 0 0 1-1.25-.3c.12-1.24.25-2.48.38-3.72a27.67 27.67 0 0 1 2.72-9.33 4.92 4.92 0 0 1 3.13-1.11 5 5 0 0 1 5 4.49 5 5 0 0 1 4.51 4.97zm49.59 0a5 5 0 0 1-4.49 5 5 5 0 0 1-10 0 5 5 0 0 1 0-10 5 5 0 0 1 10 0 5 5 0 0 1 4.49 5z" data-original="#ffffff"/></g></g></svg>